<svg width="10" height="10" viewBox="0 0 20 15" fill="none" xmlns="http://www.w3.org/2000/svg">
<path d="M9.178 14.569C9.26974 14.7022 9.39249 14.8112 9.53569 14.8864C9.67889 14.9617 9.83823 15.001 10 15.001C10.1618 15.001 10.3211 14.9617 10.4643 14.8864C10.6075 14.8112 10.7303 14.7022 10.822 14.569L19.822 1.569C19.9262 1.41906 19.9873 1.24343 19.9986 1.06121C20.01 0.87898 19.9712 0.697123 19.8865 0.535394C19.8018 0.373665 19.6743 0.238248 19.518 0.143858C19.3617 0.049468 19.1826 -0.000286344 19 1.23965e-06H1C0.817843 0.000753649 0.639338 0.0511479 0.48368 0.145764C0.328023 0.24038 0.201102 0.375639 0.116568 0.536994C0.0320343 0.698349 -0.00691503 0.879696 0.00390894 1.06153C0.0147329 1.24337 0.0749206 1.41881 0.178 1.569L9.178 14.569Z" fill="black"/>
</svg>
