<svg width="10" height="10" viewBox="0 0 24 24" fill="none" xmlns="http://www.w3.org/2000/svg">
<path d="M3 19H21C21.1822 18.9994 21.3609 18.9492 21.5167 18.8546C21.6725 18.7601 21.7995 18.6248 21.8842 18.4634C21.9689 18.3021 22.0079 18.1206 21.9971 17.9387C21.9863 17.7568 21.9261 17.5813 21.823 17.431L12.823 4.431C12.45 3.892 11.552 3.892 11.178 4.431L2.178 17.431C2.07383 17.5809 2.01274 17.7566 2.00137 17.9388C1.99 18.121 2.02879 18.3029 2.11352 18.4646C2.19825 18.6263 2.32568 18.7618 2.48197 18.8561C2.63825 18.9505 2.81742 19.0003 3 19Z" fill="black"/>
</svg>
